<?xml version="1.0" encoding="utf-8"?>
<?xml-stylesheet type="text/xsl" href="rss1.xsl"?>
<rss version="2.0" xmlns:atom="http://www.w3.org/2005/Atom" xmlns:content="http://purl.org/rss/1.0/modules/content/" xmlns:dc="http://purl.org/dc/elements/1.1/" xmlns:media="http://search.yahoo.com/mrss/">
<channel>
 <title>Getty</title>
 <link>http://www.gettyimg.com/</link>
 <atom:link href="http://www.gettyimg.com/" rel="self" type="application/rss+xml" />

 
                <item>
                <title><![CDATA[【Music Videos】Ariana Grande - 34+35 Music Video (Behind The Scenes &amp; Making of)]]></title>
                <link><![CDATA[https://sharemania.us/threads/ariana-grande-34-35-music-video-behind-the-scenes-making-of.222987/]]></link>
                <description><![CDATA[<article>
<blockquote class="messageText SelectQuoteContainer ugc baseHtml">
<b><span style="text-decoration: underline">I'm pretty sure there's a better quiality version of this, i'll update if I can find it.<br>
</span></b><br>
<div style="text-align: center"><b><span style="text-decoration: underline"><img src="http://imgfz.com/i/Mma9Hxr.png" class="bbCodeImage LbImage" alt="[​IMG]" data-url="http://imgfz.com/i/Mma9Hxr.png" style=""><br>
<br>
<img src="https://media.giphy.com/media/v1.Y2lkPTc5MGI3NjExd2U2M3RpZ3R1YjZ0Y2FwMW5xcmJnYXFwcmFkY3RmeHY3NTF5ZjVsbCZlcD12MV9pbnRlcm5hbF9naWZfYnlfaWQmY3Q9Zw/JDnkhmQke9pRG1mj9Z/giphy.gif" class="bbCodeImage LbImage" alt="[​IMG]" data-url="https://media.giphy.com/media/v1.Y2lkPTc5MGI3NjExd2U2M3RpZ3R1YjZ0Y2FwMW5xcmJnYXFwcmFkY3RmeHY3NTF5ZjVsbCZlcD12MV9pbnRlcm5hbF9naWZfYnlfaWQmY3Q9Zw/JDnkhmQke9pRG1mj9Z/giphy.gif" style=""><br>
<br>
</span></b><br>
<div style="text-align: center">​</div>
<div class="ToggleTriggerAnchor bbCodeSpoilerContainer">
<button type="button" class="button bbCodeSpoilerButton ToggleTrigger Tooltip JsOnly" data-target="> .SpoilerTarget"><span>Spoiler: <span class="SpoilerTitle">MediaInfo</span></span></button>
<div class="SpoilerTarget bbCodeSpoilerText">
<div class="bbCodeBlock bbCodeCode">
<div class="type">Code:</div>
<pre>General
                  :
Format                         : MPEG-4
Format profile                 : Base Media / Version 2
Codec ID                       : mp42 (mp42/mp41)
File size                      : 14.0 MiB
Duration                       : 6 s 200 ms
Overall bit rate mode          : Variable
Overall bit rate               : 18.9 Mb/s
Frame rate                     : 30.000 FPS
Encoded date                   : 2023-06-19 20:36:45 UTC
Tagged date                    : 2023-06-19 20:36:45 UTC
TIM                            : 00:00:00:00
TSC                            : 30
TSZ                            : 1

Video
ID                             : 1
Format                         : AVC
Format/Info                    : Advanced Video Codec
Format profile                 : Main@L4.1
Format settings                : CABAC / 4 Ref Frames
Format settings, CABAC         : Yes
Format settings, Reference fra : 4 frames
Format settings, GOP           : M=1, N=30
Codec ID                       : avc1
Codec ID/Info                  : Advanced Video Coding
Duration                       : 6 s 200 ms
Bit rate                       : 18.6 Mb/s
Width                          : 1 920 pixels
Height                         : 1 080 pixels
Display aspect ratio           : 16:9
Frame rate mode                : Constant
Frame rate                     : 30.000 FPS
Standard                       : Component
Color space                    : YUV
Chroma subsampling             : 4:2:0
Bit depth                      : 8 bits
Scan type                      : Progressive
Bits/(Pixel*Frame)             : 0.299
Stream size                    : 13.7 MiB (98%)
Language                       : English
Encoded date                   : 2023-06-19 20:36:45 UTC
Tagged date                    : 2023-06-19 20:36:45 UTC
Color range                    : Limited
Codec configuration box        : avcC

Audio
ID                             : 2
Format                         : AAC LC
Format/Info                    : Advanced Audio Codec Low Complexity
Codec ID                       : mp4a-40-2
Duration                       : 6 s 200 ms
Source duration                : 6 s 229 ms
Bit rate mode                  : Variable
Bit rate                       : 317 kb/s
Maximum bit rate               : 369 kb/s
Channel(s)                     : 2 channels
Channel layout                 : L R
Sampling rate                  : 48.0 kHz
Frame rate                     : 46.875 FPS (1024 SPF)
Compression mode               : Lossy
Stream size                    : 240 KiB (2%)
Source stream size             : 241 KiB (2%)
Language                       : English
Encoded date                   : 2023-06-19 20:36:45 UTC
Tagged date                    : 2023-06-19 20:36:45 UTC

</pre>
</div></div>
</div><b><span style="text-decoration: underline"><br>
<div class="bbCodeBlock bbCodeVfcHH HiddenContent">
<div class="attribution type">Hidden Content:</div>
<blockquote>You must either reply or click 'Like' to see the hidden information contained here.</blockquote>
</div></span></b>​</div>
<div class="messageTextEndMarker">&nbsp;</div>
</blockquote>
</article>]]></description>
                <author><![CDATA[honeymooon]]></author>
                </item>

                
                <item>
                <title><![CDATA[【Music Videos】.]]></title>
                <link><![CDATA[https://sharemania.us/threads/222988/]]></link>
                <description><![CDATA[<article>
<blockquote class="messageText SelectQuoteContainer ugc baseHtml">
.....
<div class="messageTextEndMarker">&nbsp;</div>
</blockquote>
</article>]]></description>
                <author><![CDATA[honeymooon]]></author>
                </item>

                </channel></rss>